<svg enable-background="new 0 0 64 64" height="64" viewBox="0 0 59.999997 59.999997" width="64" xmlns="http://www.w3.org/2000/svg" xmlns:xlink="http://www.w3.org/1999/xlink"><linearGradient id="a" gradientUnits="userSpaceOnUse" x1="10.325120264433" x2="50.677348502169" y1="9.083281259895" y2="57.732228534673"><stop offset="0" stop-color="#4e342e"/><stop offset="1" stop-color="#4e342e"/></linearGradient><filter id="b" color-interpolation-filters="sRGB" height="1.358521" width="1.413378" x="-.206689" y="-.17926"><feGaussianBlur stdDeviation="18.370851"/></filter><linearGradient id="c" gradientUnits="userSpaceOnUse" x1="10.450829777116" x2="47.66036179779" y1="9.963237359783" y2="59.617846336021"><stop offset="0" stop-color="#ffb724"/><stop offset="1" stop-color="#ffab00"/></linearGradient><linearGradient id="d" gradientUnits="userSpaceOnUse" x1="10.953659116734" x2="51.68301251474" y1="8.45474187426" y2="57.606523644213"><stop offset="0" stop-color="#fbc33c"/><stop offset="1" stop-color="#fbc02d"/></linearGradient><linearGradient id="e" gradientUnits="userSpaceOnUse" x1="10.073704261291" x2="50.551641833931" y1="8.831865256752" y2="58.486475655213"><stop offset="0" stop-color="#1a1a1a"/><stop offset="1"/></linearGradient><g transform="matrix(.93749995 0 0 .93749995 0 .000013)"><circle cx="32.000004" cy="32" fill="#e91e63" r="32"/><path d="m46.171875 29.248047c-9.039922 6.05861-20.878323-6.801326-26.988281 15.935547-1.60522 3.302108-3.574501 9.921225-3.965792 14.06406 5.037306 3.118164 10.85791 4.738078 16.782198 4.752346 8.793485-.014792 17.215487-3.603352 23.248659-10.000728-.484897-10.987899-2.511415-24.154585-9.076784-24.751225z" fill="url(#a)"/><path d="m316.24769 150.69129c-22.46113.0651-24.69506 8.15538-24.69506 8.15538s41.29964 5.24411 46.39876 60.08173c-15.66907-13.38271-17.97889-8.78621-17.97889-8.78621s23.6822 29.94476.7993 79.6012c-13.31339-14.27632-30.87872-26.28932-30.87872-26.28932s16.23534 33.98119-7.74871 66.7729c-17.1749-19.51985-36.06422-30.84043-36.43317-29.66437 0 0-4.01282 41.10462-23.04229 58.54403-12.40071-43.18724-25.23743-39.62722-26.38766-37.55517 0 0-8.691 17.25621-32.30582 29.46632 6.39742-20.42957-4.81033-47.78074-7.81383-47.37365 0 0-5.41003 4.44936-13.68093 22.08182-24.97171-71.43935 15.60693-60.82218.67481-95.51025-.24611.10755-14.65238-13.86821-17.27396-19.59044-16.12762-105.16129 128.50628-125.38023 190.36617-59.93397z" filter="url(#b)" opacity=".394" transform="matrix(.17777778 0 0 .17777778 -7.273982 -2.819422)"/><path d="m48.94783 16.859029c-3.99309.01157-4.390233 1.449845-4.390233 1.449845s7.342159.932287 8.248669 10.681197c-2.785613-2.379149-3.196247-1.561993-3.196247-1.561993s4.210169 5.323513.142097 14.151325c-2.366824-2.538013-5.48955-4.673657-5.48955-4.673657s2.886283 6.0411-1.377548 11.870738c-3.053316-3.470196-6.411417-5.482744-6.477008-5.273666 0 0-.713391 7.307488-4.096408 10.407827-2.20457-7.677731-4.486654-7.044839-4.691139-6.676474 0 0-1.545067 3.06777-5.743257 5.238457 1.137319-3.631924-.85517-8.494354-1.389125-8.421983 0 0-.961784.790998-2.432166 3.925657-4.439415-12.700329 2.774566-10.812832.119966-16.9796-.04375.01912-2.604867-2.46546-3.070926-3.482745-2.867132-18.6953407 22.845561-22.2898189 33.842875-10.654928z" fill="#fff"/><path d="m17.175764 36.202469c6.271424-4.094314 6.273099-2.692533 7.293741-5.33107-7.23351-1.266992-15.259888 1.234612-11.59383 8.973109 0 0 2.209613-2.277271 4.300089-3.642039z" fill="url(#c)"/><path d="m19.730637 25.587653c-4.596016 1.339655-6.872354 3.845314-8.560386 8.073966-1.190496 4.340984 1.707076 6.176406 1.707076 6.176406 4.515106-11.709668 16.476229-6.772116 9.542432-10.847892 0 0-1.354112-3.087351-2.689122-3.40248" fill="url(#d)"/><path d="m18.798241 30.731644c.977966 1.044591.455671 1.533575-.522296.488983-.988931-1.127036-.455671-1.533571.522296-.488983" fill-opacity=".666667"/><path d="m25.422114 19.511671c-1.391605-.141901-2.779468.01051-4.164131.147116-.764779.07513-1.530134.15207-2.293376.244978-.2328.02856-.457014.0249-.677092.0036-.217648-.03791-.434252-.09434-.650718-.184045-.568212-.234764-1.210946-.437203-1.783863-.659893-1.629714 3.01693-2.199552 6.648516-.827981 8.863678.524472-.355656 1.521657-.847607 2.294427-.912536.971726.359904 2.26515 2.013742 2.26515 2.013742.310665.416222.714354.766738 1.087942 1.133323.375653.368904.821047.646245 1.254572.940817.436496.295986.882169.583693 1.402935.687104.934244.184964 1.865529.131796 2.799183-.06645 1.537984-.326674 2.534775-1.353959 3.483189-2.512309.586089-.715288 1.12509-1.460335 1.629246-2.224585.567339-.86013 1.388132-2.294265 1.755805-3.26087.308695-.812677-.253536-.815859-1.132093-1.46019-1.930931-1.415851-4.013555-2.504942-6.443196-2.753468zm2.595551 5.155299s-1.266157 2.002559-3.236023 2.38647c-1.969547.383673-3.897423-.997286-3.897423-.997286s1.268194-2.002584 3.237958-2.386231c1.385056-.191484 2.715475.210395 3.895488.997047z" fill="url(#e)"/></g></svg>
