<?xml version="1.0" encoding="UTF-8" standalone="no"?>
<svg
   xmlns:dc="http://purl.org/dc/elements/1.1/"
   xmlns:cc="http://creativecommons.org/ns#"
   xmlns:rdf="http://www.w3.org/1999/02/22-rdf-syntax-ns#"
   xmlns:svg="http://www.w3.org/2000/svg"
   xmlns="http://www.w3.org/2000/svg"
   xmlns:xlink="http://www.w3.org/1999/xlink"
   xmlns:sodipodi="http://sodipodi.sourceforge.net/DTD/sodipodi-0.dtd"
   xmlns:inkscape="http://www.inkscape.org/namespaces/inkscape"
   width="1171.5889"
   height="379.59567"
   id="svg3386"
   version="1.1"
   inkscape:version="0.91 r13725"
   sodipodi:docname="logoTextSubtitle.svg"
   inkscape:export-filename="/home/kotori/git/tokumei-www/img/logoText.png"
   inkscape:export-xdpi="90"
   inkscape:export-ydpi="90">
  <metadata
     id="metadata3396">
    <rdf:RDF>
      <cc:Work
         rdf:about="">
        <dc:format>image/svg+xml</dc:format>
        <dc:type
           rdf:resource="http://purl.org/dc/dcmitype/StillImage" />
        <dc:title />
      </cc:Work>
    </rdf:RDF>
  </metadata>
  <sodipodi:namedview
     pagecolor="#ffffff"
     bordercolor="#666666"
     borderopacity="1"
     objecttolerance="10"
     gridtolerance="10"
     guidetolerance="10"
     inkscape:pageopacity="0"
     inkscape:pageshadow="2"
     inkscape:window-width="1280"
     inkscape:window-height="691"
     id="namedview3394"
     showgrid="false"
     inkscape:zoom="0.5"
     inkscape:cx="605.81276"
     inkscape:cy="185.36043"
     inkscape:window-x="0"
     inkscape:window-y="27"
     inkscape:window-maximized="1"
     inkscape:current-layer="svg3386"
     fit-margin-top="0"
     fit-margin-left="0"
     fit-margin-right="0"
     fit-margin-bottom="0" />
  <defs
     id="defs3388">
    <marker
       id="se_marker_start_path10416"
       refY="50"
       refX="50"
       se_type="rightarrow"
       orient="auto"
       markerUnits="strokeWidth"
       markerWidth="5"
       viewBox="0 0 100 100"
       markerHeight="5">
      <path
         d="M 100,50 0,90 30,50 0,10 Z"
         id="path3391"
         inkscape:connector-curvature="0"
         style="stroke:#000000;stroke-width:10" />
    </marker>
    <linearGradient
       gradientUnits="userSpaceOnUse"
       gradientTransform="scale(1.1399348,0.87724319)"
       id="linearGradient3969"
       y2="42.840499"
       xlink:href="#linearGradient3941"
       x2="13.998286"
       y1="38.539714"
       x1="13.746157" />
    <linearGradient
       id="linearGradient3941">
      <stop
         id="stop3943"
         offset="0" />
      <stop
         id="stop3945"
         stop-opacity="0"
         offset="1" />
    </linearGradient>
    <linearGradient
       id="linearGradient9115"
       y2="0.55352998"
       xlink:href="#linearGradient3941"
       x2="0.5"
       y1="-0.030702"
       x1="0.46575001" />
    <linearGradient
       gradientUnits="userSpaceOnUse"
       gradientTransform="scale(1.1399188,0.8772555)"
       id="linearGradient4003"
       y2="39.654913"
       xlink:href="#linearGradient3941"
       x2="213.5267"
       y1="35.354116"
       x1="213.27464" />
    <linearGradient
       id="linearGradient9146"
       y2="0.55352998"
       xlink:href="#linearGradient3941"
       x2="0.5"
       y1="-0.030703001"
       x1="0.46575999" />
    <linearGradient
       inkscape:collect="always"
       xlink:href="#linearGradient3941"
       id="linearGradient9318"
       gradientUnits="userSpaceOnUse"
       gradientTransform="scale(1.1399188,0.8772555)"
       x1="213.27464"
       y1="35.354116"
       x2="213.5267"
       y2="39.654913" />
    <linearGradient
       inkscape:collect="always"
       xlink:href="#linearGradient3941"
       id="linearGradient9320"
       gradientUnits="userSpaceOnUse"
       gradientTransform="scale(1.1399188,0.8772555)"
       x1="213.27464"
       y1="35.354116"
       x2="213.5267"
       y2="39.654913" />
    <linearGradient
       inkscape:collect="always"
       xlink:href="#linearGradient3941"
       id="linearGradient9322"
       gradientUnits="userSpaceOnUse"
       gradientTransform="scale(1.1399188,0.8772555)"
       x1="213.27464"
       y1="35.354116"
       x2="213.5267"
       y2="39.654913" />
  </defs>
  <path
     style="fill:#000000;fill-opacity:1;fill-rule:evenodd;stroke:none;stroke-width:1.25;stroke-opacity:1;marker-start:url(#se_marker_start_path10416)"
     d="m 254.10547,0.00390625 c -2.35837,0.08382715 -3.21819,1.56947815 -3.86719,5.46679685 -0.93413,5.0669999 -0.44397,5.3123089 -0.88672,13.7246089 -0.44278,8.413001 -0.97204,13.454438 -0.52929,24.523438 -0.9105,7.4154 -0.79932,10.897937 -2.57032,16.210938 -1.771,5.3131 -1.76935,6.640934 -3.09765,9.740234 -1.3282,3.09931 -2.65674,3.541265 -4.42774,0.884766 -1.77105,-2.656001 -1.32889,-11.954079 -0.44336,-22.580079 -0.8737,-10.761 -1.67309,-15.052793 -2.55859,-20.808593 -1.1562,-5.34983 -3.08679,-5.37486 -4.52539,-5.75586 -1.1679,-0.381 -2.89064,0.849494 -4.42774,4.871094 0.0867,5.2395 0.34375,8.105353 0.34375,15.189453 0,7.084 -0.78576,8.718384 -1.22851,18.458985 -0.4427,9.740899 -1.32874,10.182918 -1.77149,16.824218 -0.44275,6.6414 0.88485,10.627013 -0.44335,16.382813 -1.32831,5.7562 0.44239,6.641903 -3.09961,13.283201 -3.542,6.6412 -7.52539,13.2815 -7.52539,10.625 -10e-6,-2.6562 -6.1e-4,-7.08234 -0.44336,-10.18164 -0.4428,-3.0993 -3.09992,0.44172 -6.19922,3.54102 -3.0993,3.0993 -3.09814,6.19823 -4.86914,9.74023 -1.771,3.542 -0.88508,6.19903 -3.98438,14.61133 -3.0992,8.4124 -2.65795,8.85553 -5.31445,14.61133 -2.6564,5.7562 -6.6402,7.96972 -10.625,11.51172 -3.9847,3.542 -3.98542,4.42822 -6.19922,6.19921 -2.2139,1.77101 -6.64086,5.75635 -11.06836,7.52735 -4.4272,1.771 -7.08429,1.32795 -10.18359,2.65625 -3.0992,1.3282 -3.98388,6.6402 -9.29688,10.625 -5.3127,3.9848 -6.19879,4.42878 -10.18359,6.64258 -3.9852,2.2137 -6.19872,7.5266 -11.51172,8.41211 -5.31303,0.886 -1.32947,-5.31378 -0.88672,-11.95508 0.4428,-6.641 -2.21198,-8.85383 -4.42578,-11.95313 -2.2138,-3.099 -2.21477,-6.64173 -3.54297,-14.61132 -1.3283,-7.9695 -1.77098,-5.31347 -7.08398,-8.85547 -5.313,-3.5417 -1.7705,-7.52563 -5.3125,-11.95313 -3.542006,-4.428 2.6565,-10.18439 0,-15.05469 -2.657006,-4.87033 -9.740548,-3.09856 -12.839848,-0.88476 -3.0993,2.213 3.540881,-14.16967 -0.886719,-16.82617 -7.0842,1.771 -9.297844,-3.09961 -12.839844,-3.09961 -3.542,0 -4.426515,-5.75453 -3.541015,-11.953128 0.885,-6.19855 -12.398513,-3.098625 -11.070313,-6.640625 1.3282,-3.542 -2.656559,-4.871094 -5.755859,-4.871094 -3.0994,0 -4.427734,4.427735 -4.427734,4.427735 -10e-7,0 0.442875,-3.984675 -1.328126,-7.083985 -1.770999,-3.09931 -3.099359,-2.213065 -5.755859,-0.884765 -2.6566,1.328299 -6.197265,6.640624 -6.197265,6.640624 -10e-7,10e-7 1.77034,-21.252996 -0.44336,-23.466796 -2.2137,-2.2138 -3.5415,1.329653 -5.3125,5.314453 -1.7711,3.9847 -4.427734,10.625 -4.427734,10.625 0,0 1.328375,-28.779222 -1.328125,-30.107422 -2.6565,-1.3283 -5.313544,3.541809 -7.527344,8.412109 -2.2137,4.87 -0.884766,21.251953 -0.884766,21.251953 0,0 -5.314278,-21.694328 -6.642578,-25.236328 -1.3279,-3.542 -7.9678404,-5.312015 -10.18164038,-3.541015 -2.21370402,1.771 3.09796568,21.251587 6.19726558,30.992187 3.0990001,9.741 12.8401138,19.924317 10.1835938,21.695317 -2.65652,1.771 -4.426591,1.77015 -2.212891,7.96875 2.214,6.199 11.509969,9.74199 24.792969,18.15429 13.2827,8.413 16.824528,21.69398 19.923828,27.89258 3.0993,6.198 1.771485,13.72614 1.771485,17.71094 0,3.985 9.740409,20.80883 8.412109,25.23633 -1.328,4.4275 -9.741028,4.87011 -14.611328,8.41211 -4.8699,3.542 -11.068109,11.06915 -13.72461,15.93945 -0.904104,1.65752 -1.132809,3.26364 -1.035156,4.85351 0.26072,0.0924 1.285028,0.44384 1.75,0.2461 3.393099,-1.44297 5.578125,-7.35156 5.578125,-7.35156 0,0 3.851748,-1.89726 4.964844,-3.375 0.645867,-0.85749 0.636719,-2.71094 0.636719,-2.71094 0,0 12.431089,-0.63511 15.30664,2.60937 3.453925,3.89674 -0.935546,16.55469 -0.935546,16.55469 0,0 -6.052389,2.05653 -8.609376,3.85742 -2.85966,2.01401 -6.892578,7.32227 -6.892578,7.32227 l -7.269531,-4.61133 -3.398437,4.60352 c -0.692572,4.01098 -1.487171,8.48343 -0.980469,12.53711 0.8856,7.0841 5.31225,11.06853 7.96875,9.74023 2.6565,-1.3282 1.328734,-3.98413 1.771484,-6.64063 0.442,-2.657 11.953125,-13.2832 11.953125,-13.2832 0,0 5.314513,1.77124 11.070313,4.42774 5.7562,2.6567 9.740718,6.64076 11.511719,11.06836 1.770999,4.42739 1.328199,6.19935 0,10.62695 -1.328,4.4272 -11.069329,9.29701 -14.611329,13.72461 -3.542,4.427 -3.9843,15.93847 -5.3125,19.48047 -1.3283,3.54205 -4.871328,2.21408 -9.298828,3.09961 -4.428,0.88545 -16.382312,-6.1e-4 -21.695312,-0.44336 -5.3127,-0.4428 -9.296625,2.65729 -11.953125,4.87109 l 0,-0.006 c -3.9848,3.9852 -2.213316,5.7564 1.771484,13.2832 3.9847,7.5269 2.212891,-4.42748 2.212891,-7.08398 0,-2.65655 2.657218,-0.88611 6.199219,-0.44336 3.541999,0.44275 9.298828,0.44336 9.298828,0.44336 0,0 -1.328735,2.2132 -1.771485,5.3125 -0.4428,3.0993 7.96966,10.1845 5.75586,7.9707 -2.2138,-2.2135 1.327875,-7.96979 3.984375,-10.18359 2.6565,-2.2138 7.084593,0.001 7.527343,2.21484 0.4428,2.214 2.656191,13.28108 -3.099609,14.60938 -5.7558,1.32824 -9.298828,-0.88477 -9.298828,-0.88477 0,0 0.885559,2.6573 5.755859,4.8711 4.8705,2.2138 8.412344,-1.77162 12.839844,-6.19922 4.4276,-4.4279 1.330078,-7.96972 1.330078,-11.51172 0,-3.542 1.769531,-4.42774 1.769531,-4.42774 0,0 6.642388,-0.88525 15.054688,-2.65625 8.4124,-1.7709 12.397528,-8.41315 14.611328,-10.62695 2.2137,-2.21378 5.31208,-3.98333 9.29687,-1.76953 3.9844,2.213 -4.42626,15.93829 -6.197261,20.80859 -1.77105,4.87 -1.330078,16.38086 -1.330078,16.38086 0,0 -15.938468,4.8711 -19.480469,4.8711 -3.542,0 -4.870284,-0.88553 -7.083984,0 -2.2138,0.8854 -1.328125,5.3125 -1.328125,5.3125 0,0 -3.0988,-0.44148 -5.3125,0.88671 -2.2138,1.328 -4.871094,11.06738 -4.871094,14.60938 0,3.542 8.41211,3.54297 8.41211,3.54297 l -1.328125,-10.18359 c 0,-10e-6 4.871403,0.88607 7.970703,0.44335 3.099,-0.4428 10.181641,-3.09961 10.181641,-3.09961 -10e-7,0 -1.769357,6.19824 -3.097657,9.74024 -1.3283,3.5421 -6.199219,7.52734 -6.199219,7.52734 10e-7,0 7.083,-0.44367 10.625,-3.54297 3.5421,-3.0993 0.886294,-5.31151 4.871094,-8.85351 3.9844,-3.542 8.412542,-4.9e-4 10.183594,-1.77149 1.77105,-1.771 2.21289,-11.95507 2.21289,-11.95507 0,0 20.36676,0.88707 24.35156,-1.76954 3.9848,-2.65599 1.32788,-4.87016 3.98438,-14.16796 2.6562,-9.2982 3.98499,-0.88691 10.18359,7.52539 6.1987,8.4124 1.32776,2.21353 11.06836,2.65625 9.7406,0.4428 5.31355,-0.88397 7.52735,3.98632 2.21369,4.87027 2.2135,4.42713 8.4121,3.98438 6.199,-0.4428 3.54212,2.3e-4 11.51172,4.42773 7.9692,4.4276 5.7561,-0.885 10.1836,-5.3125 4.4275,-4.4275 2.65631,1.76984 8.41211,4.86915 5.7558,3.0993 3.98498,-3.1e-4 4.42773,-3.09961 0.4428,-3.09927 0.88427,0.44343 6.19727,-0.88477 5.313,-1.3283 1.32917,-2.65729 3.54297,-4.87109 2.2137,-2.2137 3.54132,1.77131 6.64062,3.09961 3.0992,1.3282 3.98468,-3.98445 7.08398,-2.65625 3.0994,1.3283 6.64125,0.44287 12.83985,-1.32813 6.1986,-1.7709 5.75634,-3.54125 7.52734,-7.96875 1.77103,-4.4276 0.88477,-6.20026 0.88477,-8.41406 0,-2.2137 4.42878,0.44312 6.64258,-3.98438 2.2138,-4.4277 -3.5428,-7.96906 -4.8711,-11.06836 -1.3282,-3.0993 -2.65575,-6.19952 -7.96875,-9.29882 -5.313,-3.0993 -7.52771,-4.42592 -16.38281,-8.85352 -8.8554,-4.4275 -9.29694,-5.31364 -15.05274,-7.52734 -5.7554,-2.2138 -5.75696,-5.75617 -13.72656,-8.85547 -7.9694,-3.0993 -8.85448,-5.75617 -12.39648,-8.85547 -3.54205,-3.1 -3.54266,-5.75522 -0.44336,-16.82422 3.0989,-11.069 6.19928,-0.44378 11.95508,3.54102 5.7558,3.9847 6.19914,0.44312 7.52734,-3.98438 1.3283,-4.4275 3.98388,-0.44275 9.29688,0 5.313,0.4427 3.9846,-1.77002 8.4121,-3.54101 4.4275,-1.771 1.7705,-4.42847 5.3125,-3.54297 3.54201,0.8855 5.31311,-0.44311 5.75586,-3.09961 0.4428,-2.6566 3.09967,-4.42617 8.85547,-6.19727 5.7562,-1.77095 5.75592,-0.44336 11.51172,-0.44336 5.7558,0 6.64233,-1.32721 9.29883,-3.54101 2.6565,-2.2137 3.09918,-6.64251 7.08398,-7.97071 3.9845,-1.3282 7.52563,-5.7547 11.95313,-10.625 4.4276,-4.8702 5.31372,-5.31402 6.19922,-9.29883 0.8855,-3.984 3.98412,-11.51177 6.64062,-17.26757 2.65645,-5.7557 2.2151,-9.7395 -0.4414,-10.625 -2.65655,-0.8855 -3.5434,-5.75495 0.4414,-7.96875 3.9845,-2.214 7.97028,-8.41388 11.95508,-16.82618 3.98475,-8.412 2.65549,-6.64159 3.54102,-10.18359 0.8856,-3.5421 0.44384,-3.09923 2.21484,-7.08398 1.771,-3.98475 -0.88583,-2.65674 -3.09961,-4.42774 -2.21378,-1.771 -1.77148,-1.32721 -1.77148,-3.54101 0,-2.2138 2.21381,-1.77058 5.75586,-3.98438 3.54205,-2.2138 1.77131,-2.65729 3.09961,-4.87109 1.3283,-2.2138 -0.44257,-4.42693 -1.32813,-6.64063 -0.8855,-2.2138 -0.44336,-3.98552 -0.44336,-6.19922 0,-2.2138 1.7711,-5.31298 0,-7.08398 -1.771,-1.77095 -3.54206,7e-5 -5.75586,-1.32812 -2.2138,-1.3283 1.7721,-3.542064 2.21485,-5.755864 0.4427,-2.21376 -2.2146,-1.771485 -4.8711,-1.771485 -2.6565,0 -0.88428,-3.097965 0.88672,-6.197265 1.771,-3.0993 3.54143,-1.329403 6.64063,-7.970704 3.0993,-6.6413 -0.88477,-3.984374 -0.88477,-3.984374 0,-10e-7 -2.21423,-1.770575 -1.77148,-3.984376 0.4428,-2.213799 0.88469,-2.215038 2.21289,-6.642578 1.3282,-4.42754 0.88501,-4.86914 -1.77149,-4.86914 -2.6565,0 -6.19719,-0.44245 -7.52539,-2.65625 -1.3283,-2.2138 1.76984,-3.543203 4.86914,-7.970703 3.0993,-4.4276 2.65633,-3.984685 1.32813,-7.083985 -1.3283,-3.0993 -4.42658,0.88581 -9.29688,3.09961 -4.8703,2.2137 -2.65729,2.657218 -4.87109,6.199218 -2.2138,3.542 -2.65527,3.098266 -6.19727,3.541016 -3.542,0.4428 -0.88697,-1.771544 1.76953,-7.527344 2.65655,-5.7557 1.32861,-3.099184 3.09961,-7.083984 1.771,-3.9848 0.88568,-4.870109 -1.32812,-8.41211 -2.0784,-0.835599 -4.18123,1.058319 -6.64063,6.199219 -1.6476,2.5698 0.0498,0.772875 -4.42773,9.296875 -2.7182,3.111 -2.65639,4.870485 -7.08399,4.427735 0.9854,-1.9313 1.21821,-3.910835 3.09961,-9.740235 3.0993,-6.6409 2.65534,-9.297494 4.86914,-15.496094 2.2138,-6.1982 2.21477,-9.297593 3.54297,-15.496093 0.2457,-5.7926006 -0.97317,-7.4522753 -3.54297,-9.2968752 -2.4344,0.1852999 -3.208,2.0044496 -6.75,9.5312502 -1.5123,7.7972 -3.87621,10.392562 -4.76171,17.476562 -0.8855,7.084 -3.09936,12.397203 -5.75586,18.595703 -2.6565,6.1987 -2.656,9.29736 -5.3125,11.06836 -0.49136,-1.6121 0.29501,-5.534422 0.5039,-9.482422 0.88546,-3.542 1.26697,-7.784156 0.82422,-18.410156 -0.4427,-10.626 -0.44262,-10.183653 -1.32812,-15.939453 -0.8855,-5.7562008 -1.32722,-12.3962349 -3.54102,-15.05273488 -0.71957,-0.11750625 -1.34443,-0.1736416 -1.88867,-0.15429687 z"
     id="path10416"
     inkscape:connector-curvature="0"
     sodipodi:nodetypes="scscsccccccsssssscssccsccccccccccccccscsscsccscccsccccscccsccscscccccccccccccscccccccccsscccssscccsccccccscccsccccscccscccsscscssccscccssccsccsccscsssccsccccsscscssssscssccsscccsscsccsccscccccccccscccsccs" />
  <g
     style="font-style:normal;font-weight:normal;font-size:40px;line-height:125%;font-family:sans-serif;letter-spacing:0px;word-spacing:0px;fill:#000000;fill-opacity:1;stroke:none;stroke-width:1px;stroke-linecap:butt;stroke-linejoin:miter;stroke-opacity:1"
     id="text6339"
     transform="translate(0,-29.575393)">
    <path
       d="m 458.53223,125.46191 102.04101,0 0,7.20704 -46.58203,0 0,124.01367 -8.87695,0 0,-124.01367 -46.58203,0 0,-7.20704 z"
       style="font-style:normal;font-variant:normal;font-weight:200;font-stretch:normal;font-size:180px;font-family:'DejaVu Sans';-inkscape-font-specification:'DejaVu Sans Ultra-Light'"
       id="path4718"
       inkscape:connector-curvature="0" />
    <path
       d="m 612.95605,175.12012 q -8.70117,-12.12891 -23.73046,-12.12891 -15.0293,0 -23.73047,12.04102 -8.78907,11.95312 -8.78907,32.34375 0,20.91797 8.70118,32.87109 8.70117,12.04102 23.81836,12.04102 15.02929,0 23.73046,-12.04102 8.78907,-12.12891 8.78907,-32.87109 0,-20.12696 -8.78907,-32.25586 z M 589.1377,155.87207 q 18.80859,0 29.70703,14.0625 10.98632,14.15039 10.98632,37.5293 0,24.16992 -10.98632,38.14453 -10.89844,14.0625 -29.70703,14.0625 -18.98438,0 -29.97071,-13.97461 -10.89844,-13.97461 -10.89844,-38.23242 0,-23.64258 10.98633,-37.61719 10.98633,-13.97461 29.88282,-13.97461 z"
       style="font-style:normal;font-variant:normal;font-weight:200;font-stretch:normal;font-size:180px;font-family:'DejaVu Sans';-inkscape-font-specification:'DejaVu Sans Ultra-Light'"
       id="path4720"
       inkscape:connector-curvature="0" />
    <path
       d="m 672.63379,119.9248 8.17383,0 0,83.05665 48.95508,-44.73633 11.07421,0 -50.88867,46.49414 52.5586,51.94336 -10.45899,0 -51.24023,-50.44922 0,50.44922 -8.17383,0 0,-136.75782 z"
       style="font-style:normal;font-variant:normal;font-weight:200;font-stretch:normal;font-size:180px;font-family:'DejaVu Sans';-inkscape-font-specification:'DejaVu Sans Ultra-Light'"
       id="path4722"
       inkscape:connector-curvature="0" />
    <path
       d="m 763.24902,217.65918 0,-59.41406 8.08594,0 0,58.88672 q 0,19.16015 6.15234,26.98242 6.15235,7.82226 18.10547,7.82226 13.97461,0 23.90625,-8.4375 10.01953,-8.52539 10.01953,-29.61914 l 0,-55.63476 8.08594,0 0,98.4375 -8.08594,0 0,-18.45703 q -4.30664,8.96484 -11.33789,13.71093 -10.37109,7.11914 -22.93945,7.11914 -14.58984,0 -23.29101,-9.93164 -8.70118,-9.84375 -8.70118,-31.46484 z"
       style="font-style:normal;font-variant:normal;font-weight:200;font-stretch:normal;font-size:180px;font-family:'DejaVu Sans';-inkscape-font-specification:'DejaVu Sans Ultra-Light'"
       id="path4724"
       inkscape:connector-curvature="0" />
    <path
       d="m 948.34668,179.69043 q 4.57031,-11.86523 14.41406,-17.92969 9.31641,-5.88867 22.14844,-5.88867 12.83203,0 20.56642,9.05273 7.8223,8.96485 7.8223,32.34375 l 0,59.41407 -7.9981,0 0,-58.88672 q 0,-20.39063 -5.625,-27.59766 -5.625,-7.20703 -14.9414,-7.20703 -13.53516,0 -23.90625,8.34961 -11.33789,9.05273 -11.33789,29.70703 l 0,55.63477 -8.08594,0 0,-58.88672 q 0,-19.6875 -5.44922,-27.2461 -5.44922,-7.55859 -15.11719,-7.55859 -13.53515,0 -23.90625,8.4375 -11.33789,9.05274 -11.33789,29.61914 l 0,55.63477 -8.08593,0 0,-98.4375 8.08593,0 0,18.45703 q 4.30664,-9.66797 13.35938,-15.29297 9.14062,-5.53711 22.41211,-5.53711 8.61328,0 16.61133,5.80078 6.15234,4.48242 10.37109,18.01758 z"
       style="font-style:normal;font-variant:normal;font-weight:200;font-stretch:normal;font-size:180px;font-family:'DejaVu Sans';-inkscape-font-specification:'DejaVu Sans Ultra-Light'"
       id="path4726"
       inkscape:connector-curvature="0" />
    <path
       d="m 1129.665,203.4209 0,5.09765 -74.707,0 q 0,23.73047 9.2285,33.22266 10.1953,10.54688 30.3223,10.54688 5.2734,0 13.9746,-2.28516 8.7891,-2.28516 17.4023,-6.85547 l 0,8.52539 q -8.7011,3.69141 -17.8418,5.625 -9.1406,1.9336 -14.5019,1.9336 -22.7637,0 -34.2774,-12.30469 -12.4804,-13.09571 -12.4804,-38.40821 0,-26.27929 11.4258,-39.19921 11.6894,-13.44727 32.5195,-13.44727 19.3359,0 29.1797,12.74414 9.7558,13.35938 9.7558,34.80469 z m -8.1738,-1.75781 q 0,-20.74219 -9.3164,-30.23438 -7.8223,-8.4375 -21.2695,-8.4375 -14.6778,0 -24.6094,8.78906 -9.1406,8.17383 -10.9863,29.88282 l 66.1816,0 z"
       style="font-style:normal;font-variant:normal;font-weight:200;font-stretch:normal;font-size:180px;font-family:'DejaVu Sans';-inkscape-font-specification:'DejaVu Sans Ultra-Light'"
       id="path4728"
       inkscape:connector-curvature="0" />
    <path
       d="m 1163.5029,158.24512 8.086,0 0,98.4375 -8.086,0 0,-98.4375 z m 0,-38.32032 8.086,0 0,11.07422 -8.086,0 0,-11.07422 z"
       style="font-style:normal;font-variant:normal;font-weight:200;font-stretch:normal;font-size:180px;font-family:'DejaVu Sans';-inkscape-font-specification:'DejaVu Sans Ultra-Light'"
       id="path4730"
       inkscape:connector-curvature="0" />
  </g>
  <g
     transform="matrix(0.25426564,-0.13547989,0.13547989,0.25426564,-1.1455766,244.46877)"
     style="stroke:none;stroke-opacity:1"
     id="layer1">
    <g
       style="fill:#ffffff;fill-opacity:1;stroke:none;stroke-width:0.021;stroke-opacity:1"
       id="g9070"
       transform="translate(-2.2974201,-1.2241301)">
      <g
         style="fill:#ffffff;fill-opacity:1;stroke:none;stroke-opacity:1"
         id="g9074" />
      <path
         style="fill:#ffffff;fill-opacity:1;stroke:none;stroke-opacity:1"
         inkscape:connector-curvature="0"
         id="path3959"
         d="m 217.35,50.784 c 0.15529,7.3321 -17.835,9.3426 -28.286,9.5014 -10.826,0.16451 -29.846,-1.3469 -29.88,-8.9425 -0.0345,-7.718 19.275,-9.2499 30.278,-9.2219 10.167,0.02577 27.737,1.5324 27.888,8.663 z" />
      <path
         style="fill:#000000;fill-opacity:1;stroke:none;stroke-opacity:1"
         inkscape:connector-curvature="0"
         id="path3961"
         d="m 217.35,50.784 c 0.15529,7.3321 -17.835,9.3426 -28.286,9.5014 -10.826,0.16451 -29.846,-1.3469 -29.88,-8.9425 -0.0345,-7.718 19.275,-9.2499 30.278,-9.2219 10.167,0.02577 27.737,1.5324 27.888,8.663 z" />
    </g>
    <g
       style="stroke:none;stroke-width:0.005;stroke-opacity:1"
       id="g9081">
      <path
         style="fill:#ffffff;stroke:none;stroke-opacity:1"
         inkscape:connector-curvature="0"
         id="path3987"
         d="m 239.21,34.291 c -0.0218,2.603 2.5714,3.3167 4.0782,3.3731 1.561,0.05842 4.3031,-0.47816 4.3081,-3.1747 0.006,-2.74 -2.779,-3.2838 -4.3654,-3.2739 -1.4658,0.0087 -3.9991,0.54403 -4.0209,3.0754 z" />
      <path
         style="fill:url(#linearGradient9318);stroke:none;stroke-opacity:1"
         inkscape:connector-curvature="0"
         id="path3989"
         d="m 239.21,34.291 c -0.0218,2.603 2.5714,3.3167 4.0782,3.3731 1.561,0.05842 4.3031,-0.47816 4.3081,-3.1747 0.006,-2.74 -2.779,-3.2838 -4.3654,-3.2739 -1.4658,0.0087 -3.9991,0.54403 -4.0209,3.0754 z" />
      <path
         style="fill:#ffffff;stroke:none;stroke-opacity:1"
         inkscape:connector-curvature="0"
         id="path3991"
         d="m 239.21,34.291 c -0.0218,2.603 2.5714,3.3167 4.0782,3.3731 1.561,0.05842 4.3031,-0.47816 4.3081,-3.1747 0.006,-2.74 -2.779,-3.2838 -4.3654,-3.2739 -1.4658,0.0087 -3.9991,0.54403 -4.0209,3.0754 z" />
      <path
         style="fill:url(#linearGradient9320);stroke:none;stroke-opacity:1"
         inkscape:connector-curvature="0"
         id="path3993"
         d="m 239.21,34.291 c -0.0218,2.603 2.5714,3.3167 4.0782,3.3731 1.561,0.05842 4.3031,-0.47816 4.3081,-3.1747 0.006,-2.74 -2.779,-3.2838 -4.3654,-3.2739 -1.4658,0.0087 -3.9991,0.54403 -4.0209,3.0754 z" />
      <path
         style="fill:#ffffff;stroke:none;stroke-opacity:1"
         inkscape:connector-curvature="0"
         id="path3995"
         d="m 239.21,34.291 c -0.0218,2.603 2.5714,3.3167 4.0782,3.3731 1.561,0.05842 4.3031,-0.47816 4.3081,-3.1747 0.006,-2.74 -2.779,-3.2838 -4.3654,-3.2739 -1.4658,0.0087 -3.9991,0.54403 -4.0209,3.0754 z" />
      <path
         style="fill:url(#linearGradient9322);stroke:none;stroke-opacity:1"
         inkscape:connector-curvature="0"
         id="path3997"
         d="m 239.21,34.291 c -0.0218,2.603 2.5714,3.3167 4.0782,3.3731 1.561,0.05842 4.3031,-0.47816 4.3081,-3.1747 0.006,-2.74 -2.779,-3.2838 -4.3654,-3.2739 -1.4658,0.0087 -3.9991,0.54403 -4.0209,3.0754 z" />
      <path
         style="fill:#ffffff;stroke:none;stroke-opacity:1"
         inkscape:connector-curvature="0"
         id="path3999"
         d="m 239.21,34.291 c -0.0218,2.603 2.5714,3.3167 4.0782,3.3731 1.561,0.05842 4.3031,-0.47816 4.3081,-3.1747 0.006,-2.74 -2.779,-3.2838 -4.3654,-3.2739 -1.4658,0.0087 -3.9991,0.54403 -4.0209,3.0754 z" />
      <path
         style="fill:#000000;fill-opacity:1;stroke:none;stroke-opacity:1"
         inkscape:connector-curvature="0"
         id="path4001"
         d="m 239.21,34.291 c -0.0218,2.603 2.5714,3.3167 4.0782,3.3731 1.561,0.05842 4.3031,-0.47816 4.3081,-3.1747 0.006,-2.74 -2.779,-3.2838 -4.3654,-3.2739 -1.4658,0.0087 -3.9991,0.54403 -4.0209,3.0754 z" />
    </g>
  </g>
  <g
     transform="translate(8.8399839,-55.575393)"
     style="font-style:normal;font-weight:normal;font-size:40px;line-height:125%;font-family:sans-serif;letter-spacing:0px;word-spacing:0px;fill:#000000;fill-opacity:1;stroke:none;stroke-width:1px;stroke-linecap:butt;stroke-linejoin:miter;stroke-opacity:1"
     id="flowRoot4337">
    <path
       d="m 468.11938,302.65613 -7.42187,19.48242 14.72778,0 -7.30591,-19.48242 z m -1.48437,-2.34253 3.03833,0 13.24341,34.62769 -2.64404,0 -4.12842,-10.87769 -16.16577,0 -4.10523,10.87769 -2.4585,0 13.22022,-34.62769 z"
       style="font-style:normal;font-variant:normal;font-weight:200;font-stretch:normal;font-size:47.5px;font-family:'DejaVu Sans';-inkscape-font-specification:'DejaVu Sans Ultra-Light'"
       id="path4392" />
    <path
       d="m 509.47314,319.26258 0,15.67871 -2.13378,0 0,-15.53955 q 0,-5.05615 -1.62354,-7.12036 -1.62353,-2.06421 -4.77783,-2.06421 -3.68775,0 -6.3086,2.22656 -2.64404,2.24976 -2.64404,7.81616 l 0,14.6814 -2.13379,0 0,-25.97656 2.13379,0 0,4.8706 q 1.13648,-2.36572 2.99194,-3.61816 2.73682,-1.87866 6.05347,-1.87866 3.8501,0 6.14624,2.62084 2.29614,2.59766 2.29614,8.30323 z"
       style="font-style:normal;font-variant:normal;font-weight:200;font-stretch:normal;font-size:47.5px;font-family:'DejaVu Sans';-inkscape-font-specification:'DejaVu Sans Ultra-Light'"
       id="path4394" />
    <path
       d="m 535.44971,313.41785 q -2.29615,-3.20068 -6.26221,-3.20068 -3.96606,0 -6.26221,3.17749 -2.31933,3.15429 -2.31933,8.53515 0,5.52002 2.29614,8.67432 2.29614,3.17749 6.2854,3.17749 3.96606,0 6.26221,-3.17749 2.31933,-3.20068 2.31933,-8.67432 0,-5.31128 -2.31933,-8.51196 z m -6.2854,-5.07934 q 4.96338,0 7.83935,3.71093 2.89917,3.73413 2.89917,9.90357 0,6.37817 -2.89917,10.06591 -2.87597,3.71094 -7.83935,3.71094 -5.00977,0 -7.90894,-3.68774 -2.87598,-3.68775 -2.87598,-10.08911 0,-6.23902 2.89917,-9.92676 2.89917,-3.68774 7.88575,-3.68774 z"
       style="font-style:normal;font-variant:normal;font-weight:200;font-stretch:normal;font-size:47.5px;font-family:'DejaVu Sans';-inkscape-font-specification:'DejaVu Sans Ultra-Light'"
       id="path4396" />
    <path
       d="m 568.6626,319.26258 0,15.67871 -2.13379,0 0,-15.53955 q 0,-5.05615 -1.62354,-7.12036 -1.62353,-2.06421 -4.77783,-2.06421 -3.68774,0 -6.30859,2.22656 -2.64405,2.24976 -2.64405,7.81616 l 0,14.6814 -2.13378,0 0,-25.97656 2.13378,0 0,4.8706 q 1.13648,-2.36572 2.99195,-3.61816 2.73681,-1.87866 6.05346,-1.87866 3.8501,0 6.14625,2.62084 2.29614,2.59766 2.29614,8.30323 z"
       style="font-style:normal;font-variant:normal;font-weight:200;font-stretch:normal;font-size:47.5px;font-family:'DejaVu Sans';-inkscape-font-specification:'DejaVu Sans Ultra-Light'"
       id="path4398" />
    <path
       d="m 587.95947,337.3534 q -1.3916,3.45581 -2.99194,4.77783 -2.15698,1.78589 -4.22119,1.78589 l -3.17749,0 0,-1.80908 2.71362,0 q 1.69312,0 2.96875,-1.09009 1.64673,-1.4148 2.71362,-4.15161 l 0.76538,-1.92505 -10.36743,-25.97656 2.27295,0 9.23096,23.14697 9.25415,-23.14697 2.24976,0 -11.41114,28.38867 z"
       style="font-style:normal;font-variant:normal;font-weight:200;font-stretch:normal;font-size:47.5px;font-family:'DejaVu Sans';-inkscape-font-specification:'DejaVu Sans Ultra-Light'"
       id="path4400" />
    <path
       d="m 625.99658,314.62391 q 1.20606,-3.13111 3.80371,-4.73145 2.4585,-1.55395 5.84473,-1.55395 3.38623,0 5.42725,2.38891 2.0642,2.36572 2.0642,8.53516 l 0,15.67871 -2.11059,0 0,-15.53955 q 0,-5.38086 -1.48438,-7.28272 -1.48437,-1.90185 -3.94287,-1.90185 -3.57177,0 -6.30859,2.20337 -2.99194,2.38891 -2.99194,7.83935 l 0,14.6814 -2.13379,0 0,-15.53955 q 0,-5.19532 -1.43799,-7.18994 -1.43799,-1.99463 -3.98926,-1.99463 -3.57178,0 -6.30859,2.22656 -2.99195,2.38892 -2.99195,7.81616 l 0,14.6814 -2.13379,0 0,-25.97656 2.13379,0 0,4.8706 q 1.13648,-2.55127 3.52539,-4.03564 2.41211,-1.46118 5.91431,-1.46118 2.27295,0 4.38355,1.53076 1.62353,1.18286 2.73681,4.75464 z"
       style="font-style:normal;font-variant:normal;font-weight:200;font-stretch:normal;font-size:47.5px;font-family:'DejaVu Sans';-inkscape-font-specification:'DejaVu Sans Ultra-Light'"
       id="path4402" />
    <path
       d="m 669.04346,313.41785 q -2.29615,-3.20068 -6.26221,-3.20068 -3.96606,0 -6.26221,3.17749 -2.31933,3.15429 -2.31933,8.53515 0,5.52002 2.29614,8.67432 2.29614,3.17749 6.2854,3.17749 3.96606,0 6.26221,-3.17749 2.31933,-3.20068 2.31933,-8.67432 0,-5.31128 -2.31933,-8.51196 z m -6.2854,-5.07934 q 4.96338,0 7.83935,3.71093 2.89917,3.73413 2.89917,9.90357 0,6.37817 -2.89917,10.06591 -2.87597,3.71094 -7.83935,3.71094 -5.00977,0 -7.90894,-3.68774 -2.87598,-3.68775 -2.87598,-10.08911 0,-6.23902 2.89917,-9.92676 2.89917,-3.68774 7.88575,-3.68774 z"
       style="font-style:normal;font-variant:normal;font-weight:200;font-stretch:normal;font-size:47.5px;font-family:'DejaVu Sans';-inkscape-font-specification:'DejaVu Sans Ultra-Light'"
       id="path4404" />
    <path
       d="m 682.35645,324.64344 0,-15.67871 2.13378,0 0,15.53955 q 0,5.05615 1.62354,7.12036 1.62353,2.06421 4.77783,2.06421 3.68775,0 6.3086,-2.22657 2.64404,-2.24975 2.64404,-7.81616 l 0,-14.68139 2.13379,0 0,25.97656 -2.13379,0 0,-4.87061 q -1.13648,2.36573 -2.99195,3.61817 -2.73681,1.87866 -6.05346,1.87866 -3.8501,0 -6.14624,-2.62085 -2.29614,-2.59766 -2.29614,-8.30322 z"
       style="font-style:normal;font-variant:normal;font-weight:200;font-stretch:normal;font-size:47.5px;font-family:'DejaVu Sans';-inkscape-font-specification:'DejaVu Sans Ultra-Light'"
       id="path4406" />
    <path
       d="m 727.49072,309.73011 0,2.34253 q -2.24975,-1.25245 -2.80639,-1.39161 -1.62354,-0.39428 -4.03565,-0.46386 -3.66455,0 -5.75195,1.46118 -1.60034,1.20605 -1.60034,4.12842 0,1.97143 1.50757,3.08471 1.60034,1.20606 4.56909,1.85547 l 1.46118,0.32471 q 3.68774,0.81177 5.5896,2.29614 2.20337,1.69312 2.31933,4.40674 0,3.68774 -2.18017,5.77515 -2.31934,2.06421 -7.46826,2.06421 -2.87598,0 -4.36036,-0.39429 -1.78588,-0.51026 -3.75732,-1.22925 l 0,-2.66724 q 2.82959,1.62354 3.66455,1.85547 2.29614,0.60303 4.5459,0.60303 3.75732,0 5.54321,-1.55395 1.80908,-1.57715 1.80908,-4.12842 0,-2.13379 -1.20605,-3.10791 -1.7395,-1.3916 -5.54321,-2.27295 l -1.48438,-0.3479 q -3.27026,-0.76538 -4.98657,-2.15698 -2.15698,-1.73951 -2.15698,-4.2212 0,-4.08203 2.59765,-5.86792 2.59766,-1.78588 6.37818,-1.78588 3.22387,0 4.45312,0.3479 1.48438,0.41748 2.89917,1.0437 z"
       style="font-style:normal;font-variant:normal;font-weight:200;font-stretch:normal;font-size:47.5px;font-family:'DejaVu Sans';-inkscape-font-specification:'DejaVu Sans Ultra-Light'"
       id="path4408" />
    <path
       d="m 767.3833,309.73011 0,2.34253 q -2.24976,-1.25245 -2.8064,-1.39161 -1.62353,-0.39428 -4.03564,-0.46386 -3.66455,0 -5.75195,1.46118 -1.60035,1.20605 -1.60035,4.12842 0,1.97143 1.50757,3.08471 1.60034,1.20606 4.56909,1.85547 l 1.46119,0.32471 q 3.68774,0.81177 5.5896,2.29614 2.20337,1.69312 2.31933,4.40674 0,3.68774 -2.18017,5.77515 -2.31934,2.06421 -7.46827,2.06421 -2.87597,0 -4.36035,-0.39429 -1.78589,-0.51026 -3.75732,-1.22925 l 0,-2.66724 q 2.82959,1.62354 3.66455,1.85547 2.29614,0.60303 4.5459,0.60303 3.75732,0 5.54321,-1.55395 1.80908,-1.57715 1.80908,-4.12842 0,-2.13379 -1.20605,-3.10791 -1.7395,-1.3916 -5.54321,-2.27295 l -1.48438,-0.3479 q -3.27026,-0.76538 -4.98657,-2.15698 -2.15698,-1.73951 -2.15698,-4.2212 0,-4.08203 2.59765,-5.86792 2.59766,-1.78588 6.37818,-1.78588 3.22387,0 4.45312,0.3479 1.48438,0.41748 2.89917,1.0437 z"
       style="font-style:normal;font-variant:normal;font-weight:200;font-stretch:normal;font-size:47.5px;font-family:'DejaVu Sans';-inkscape-font-specification:'DejaVu Sans Ultra-Light'"
       id="path4410" />
    <path
       d="m 792.896,313.41785 q -2.29615,-3.20068 -6.26221,-3.20068 -3.96607,0 -6.26221,3.17749 -2.31933,3.15429 -2.31933,8.53515 0,5.52002 2.29614,8.67432 2.29614,3.17749 6.2854,3.17749 3.96606,0 6.26221,-3.17749 2.31933,-3.20068 2.31933,-8.67432 0,-5.31128 -2.31933,-8.51196 z m -6.2854,-5.07934 q 4.96337,0 7.83935,3.71093 2.89917,3.73413 2.89917,9.90357 0,6.37817 -2.89917,10.06591 -2.87598,3.71094 -7.83935,3.71094 -5.00977,0 -7.90894,-3.68774 -2.87598,-3.68775 -2.87598,-10.08911 0,-6.23902 2.89917,-9.92676 2.89917,-3.68774 7.88575,-3.68774 z"
       style="font-style:normal;font-variant:normal;font-weight:200;font-stretch:normal;font-size:47.5px;font-family:'DejaVu Sans';-inkscape-font-specification:'DejaVu Sans Ultra-Light'"
       id="path4412" />
    <path
       d="m 824.27661,310.21717 0,2.27295 q -1.92505,-1.18286 -3.17749,-1.60035 -2.15698,-0.6726 -4.12842,-0.6726 -5.61279,0 -8.04809,2.87597 -2.43531,2.87598 -2.43531,8.88306 0,6.05347 2.43531,8.92944 2.4353,2.87598 8.04809,2.87598 1.85547,0 3.66455,-0.51025 1.83228,-0.48706 3.64136,-1.48438 l 0,2.15698 q -1.78589,0.83496 -3.68774,1.25245 -1.92505,0.41748 -3.80371,0.41748 -5.70557,0 -9.06861,-3.08472 -3.36303,-3.10791 -3.36303,-10.55298 0,-7.44507 3.36303,-10.55298 3.36304,-3.08471 9.06861,-3.08471 1.85546,0 3.94287,0.53344 2.0874,0.51026 3.54858,1.34522 z"
       style="font-style:normal;font-variant:normal;font-weight:200;font-stretch:normal;font-size:47.5px;font-family:'DejaVu Sans';-inkscape-font-specification:'DejaVu Sans Ultra-Light'"
       id="path4414" />
    <path
       d="m 832.60303,308.96473 2.13379,0 0,25.97656 -2.13379,0 0,-25.97656 z m 0,-10.11231 2.13379,0 0,2.92236 -2.13379,0 0,-2.92236 z"
       style="font-style:normal;font-variant:normal;font-weight:200;font-stretch:normal;font-size:47.5px;font-family:'DejaVu Sans';-inkscape-font-specification:'DejaVu Sans Ultra-Light'"
       id="path4416" />
    <path
       d="m 856.21387,320.28309 q -5.14893,0 -7.42188,1.83227 -2.27295,1.83228 -2.27295,5.35767 0,3.43261 1.87867,4.8706 1.87866,1.43799 4.45312,1.43799 4.87061,0 7.00439,-4.12842 2.15699,-4.12842 2.15699,-7.76977 l 0,-1.60034 -5.79834,0 z m 7.95532,-0.16236 0,14.82056 -2.1106,0 0,-7.05078 q -1.78588,5.17212 -4.73144,6.58691 -2.34253,1.13648 -4.66187,1.13648 -3.87329,0 -6.09985,-2.06421 -2.22656,-2.08741 -2.22656,-6.12305 0,-4.03564 2.89917,-6.44775 2.89917,-2.43531 9.48608,-2.43531 l 5.28809,0 0,-0.41748 q 0,-3.45581 -1.97144,-5.68237 -1.94824,-2.22656 -6.44775,-2.22656 -2.22656,0 -4.5459,0.83496 -1.48438,0.53345 -3.8501,2.15698 l 0,-2.29614 q 2.06421,-1.27564 3.8501,-1.80908 2.59766,-0.76538 4.98657,-0.76538 4.59229,0 7.56104,2.7832 2.57446,2.38891 2.57446,8.99902 z"
       style="font-style:normal;font-variant:normal;font-weight:200;font-stretch:normal;font-size:47.5px;font-family:'DejaVu Sans';-inkscape-font-specification:'DejaVu Sans Ultra-Light'"
       id="path4418" />
    <path
       d="m 874.9541,298.85242 2.13379,0 0,36.08887 -2.13379,0 0,-36.08887 z"
       style="font-style:normal;font-variant:normal;font-weight:200;font-stretch:normal;font-size:47.5px;font-family:'DejaVu Sans';-inkscape-font-specification:'DejaVu Sans Ultra-Light'"
       id="path4420" />
    <path
       d="m 922.87158,319.26258 0,15.67871 -2.13379,0 0,-15.53955 q 0,-5.05615 -1.62353,-7.12036 -1.62354,-2.06421 -4.77783,-2.06421 -3.68775,0 -6.3086,2.22656 -2.64404,2.24976 -2.64404,7.81616 l 0,14.6814 -2.13379,0 0,-25.97656 2.13379,0 0,4.8706 q 1.13647,-2.36572 2.99194,-3.61816 2.73682,-1.87866 6.05347,-1.87866 3.8501,0 6.14624,2.62084 2.29614,2.59766 2.29614,8.30323 z"
       style="font-style:normal;font-variant:normal;font-weight:200;font-stretch:normal;font-size:47.5px;font-family:'DejaVu Sans';-inkscape-font-specification:'DejaVu Sans Ultra-Light'"
       id="path4422" />
    <path
       d="m 953.64917,320.88611 0,1.34522 -19.71436,0 q 0,6.2622 2.43531,8.76709 2.69043,2.7832 8.00171,2.7832 1.3916,0 3.68774,-0.60303 2.31934,-0.60302 4.59229,-1.80908 l 0,2.24976 q -2.29615,0.97412 -4.70826,1.48437 -2.41211,0.51026 -3.8269,0.51026 -6.00708,0 -9.04541,-3.24707 -3.29346,-3.45582 -3.29346,-10.1355 0,-6.93482 3.01514,-10.34424 3.08472,-3.54858 8.58154,-3.54858 5.10254,0 7.7002,3.36303 2.57446,3.52539 2.57446,9.18457 z m -2.15698,-0.46386 q 0,-5.47364 -2.4585,-7.97852 -2.06421,-2.22656 -5.61279,-2.22656 -3.87329,0 -6.49414,2.31933 -2.41211,2.15699 -2.89917,7.88575 l 17.4646,0 z"
       style="font-style:normal;font-variant:normal;font-weight:200;font-stretch:normal;font-size:47.5px;font-family:'DejaVu Sans';-inkscape-font-specification:'DejaVu Sans Ultra-Light'"
       id="path4424" />
    <path
       d="m 964.87476,301.58924 0,7.37549 8.79028,0 0,1.80908 -8.79028,0 0,15.60913 q 0,2.96875 0.76538,4.15161 1.57715,2.59766 4.59228,2.59766 l 3.43262,0 0,1.80908 -3.31665,0 q -3.17749,0 -5.40405,-1.85547 -2.22657,-1.85547 -2.22657,-6.70288 l 0,-15.60913 -3.10791,0 0,-1.80908 3.10791,0 0,-7.37549 2.15699,0 z"
       style="font-style:normal;font-variant:normal;font-weight:200;font-stretch:normal;font-size:47.5px;font-family:'DejaVu Sans';-inkscape-font-specification:'DejaVu Sans Ultra-Light'"
       id="path4426" />
    <path
       d="m 978.90674,308.96473 2.20337,0 6.09985,23.14697 6.05347,-23.14697 2.71362,0 6.09985,23.26294 6.0767,-23.26294 2.2033,0 -6.7956,25.97656 -2.9688,0 -5.98386,-22.77588 -5.96069,22.77588 -2.92236,0 -6.81885,-25.97656 z"
       style="font-style:normal;font-variant:normal;font-weight:200;font-stretch:normal;font-size:47.5px;font-family:'DejaVu Sans';-inkscape-font-specification:'DejaVu Sans Ultra-Light'"
       id="path4428" />
    <path
       d="m 1035.5913,313.41785 q -2.2961,-3.20068 -6.2622,-3.20068 -3.9661,0 -6.2622,3.17749 -2.3193,3.15429 -2.3193,8.53515 0,5.52002 2.2961,8.67432 2.2961,3.17749 6.2854,3.17749 3.9661,0 6.2622,-3.17749 2.3193,-3.20068 2.3193,-8.67432 0,-5.31128 -2.3193,-8.51196 z m -6.2854,-5.07934 q 4.9634,0 7.8394,3.71093 2.8991,3.73413 2.8991,9.90357 0,6.37817 -2.8991,10.06591 -2.876,3.71094 -7.8394,3.71094 -5.0098,0 -7.9089,-3.68774 -2.876,-3.68775 -2.876,-10.08911 0,-6.23902 2.8992,-9.92676 2.8991,-3.68774 7.8857,-3.68774 z"
       style="font-style:normal;font-variant:normal;font-weight:200;font-stretch:normal;font-size:47.5px;font-family:'DejaVu Sans';-inkscape-font-specification:'DejaVu Sans Ultra-Light'"
       id="path4430" />
    <path
       d="m 1063.2842,310.797 q -0.5103,-0.25513 -1.3916,-0.44067 -0.7886,-0.13916 -1.9947,-0.13916 -3.9428,0 -6.5405,2.92236 -2.041,2.36572 -2.041,8.11768 l 0,13.68408 -2.0874,0 0,-25.97656 2.0874,0 0,4.8706 q 1.0437,-2.0874 2.9224,-3.52539 2.5976,-1.97143 6.123,-1.97143 0.9046,0 1.5772,0.0696 0.6958,0 1.3452,0.16235 l 0,2.22656 z"
       style="font-style:normal;font-variant:normal;font-weight:200;font-stretch:normal;font-size:47.5px;font-family:'DejaVu Sans';-inkscape-font-specification:'DejaVu Sans Ultra-Light'"
       id="path4432" />
    <path
       d="m 1070.9148,298.85242 2.157,0 0,21.91773 12.9187,-11.80542 2.9223,0 -13.4289,12.26928 13.8696,13.70728 -2.76,0 -13.5217,-13.31299 0,13.31299 -2.157,0 0,-36.08887 z"
       style="font-style:normal;font-variant:normal;font-weight:200;font-stretch:normal;font-size:47.5px;font-family:'DejaVu Sans';-inkscape-font-specification:'DejaVu Sans Ultra-Light'"
       id="path4434" />
    <path
       d="m 1096.2651,308.96473 2.1338,0 0,25.97656 -2.1338,0 0,-25.97656 z m 0,-10.11231 2.1338,0 0,2.92236 -2.1338,0 0,-2.92236 z"
       style="font-style:normal;font-variant:normal;font-weight:200;font-stretch:normal;font-size:47.5px;font-family:'DejaVu Sans';-inkscape-font-specification:'DejaVu Sans Ultra-Light'"
       id="path4436" />
    <path
       d="m 1129.1069,319.26258 0,15.67871 -2.1338,0 0,-15.53955 q 0,-5.05615 -1.6235,-7.12036 -1.6235,-2.06421 -4.7778,-2.06421 -3.6878,0 -6.3086,2.22656 -2.6441,2.24976 -2.6441,7.81616 l 0,14.6814 -2.1337,0 0,-25.97656 2.1337,0 0,4.8706 q 1.1365,-2.36572 2.992,-3.61816 2.7368,-1.87866 6.0535,-1.87866 3.85,0 6.1462,2.62084 2.2961,2.59766 2.2961,8.30323 z"
       style="font-style:normal;font-variant:normal;font-weight:200;font-stretch:normal;font-size:47.5px;font-family:'DejaVu Sans';-inkscape-font-specification:'DejaVu Sans Ultra-Light'"
       id="path4438" />
    <path
       d="m 1156.8926,321.65149 q 0,-5.40405 -2.2034,-8.3728 -2.1802,-2.99194 -6.1462,-2.99194 -3.9197,0 -6.1231,2.99194 -2.1802,2.96875 -2.1802,8.3728 0,5.38086 2.1802,8.37281 2.2034,2.96875 6.1231,2.96875 3.966,0 6.1462,-2.96875 2.2034,-2.99195 2.2034,-8.37281 z m 2.1338,10.06592 q 0,8.09448 -3.0847,10.59937 -3.0848,2.50488 -7.8162,2.50488 -2.2498,0 -4.2444,-0.32471 -1.9946,-0.3479 -3.8733,-1.0437 l 0,-2.4353 q 1.8787,1.02051 3.711,1.50757 1.8322,0.48706 3.7341,0.48706 3.8733,0 6.6565,-1.64673 2.7832,-1.64673 2.7832,-8.88306 l 0,-4.05884 q -0.9509,2.66724 -2.6209,4.198 -2.5512,2.34253 -5.7287,2.31934 -4.9402,0 -7.7002,-3.47901 -2.76,-3.50219 -2.76,-9.83398 0,-6.30859 2.76,-9.7876 2.76,-3.50219 7.7002,-3.50219 3.1543,0 5.4272,1.99462 1.7627,1.55396 2.9224,4.15162 l 0,-5.52002 2.1338,0 0,22.75268 z"
       style="font-style:normal;font-variant:normal;font-weight:200;font-stretch:normal;font-size:47.5px;font-family:'DejaVu Sans';-inkscape-font-specification:'DejaVu Sans Ultra-Light'"
       id="path4440" />
  </g>
</svg>
